<?xml version="1.0" encoding="utf-8"?>
<svg width="108" height="108" viewBox="0 0 108 108" fill="none" xmlns="http://www.w3.org/2000/svg">
  <g transform="translate(6 2)">
    <g>
      <path d="M4.14952 14.5716C4.07272 12.907 3.99592 11.2424 3.91912 9.57771C3.86536 8.39691 3.57736 6.87051 4.042 5.73963C4.44712 4.75659 5.74311 4.67595 6.66087 4.52619C8.27751 4.26315 9.90568 4.07499 11.5396 3.95787C13.2023 3.83883 14.8708 3.80235 16.5354 3.87915C17.3649 3.91755 18.1962 3.97899 19.0218 4.08267C19.5767 4.15179 20.6174 4.15179 21.107 4.47819C21.9268 5.02539 21.8673 6.59595 21.8654 7.44075C21.8615 9.14187 21.7079 10.8507 21.441 12.5307C21.2778 13.554 21.7041 14.5966 22.7812 14.8923C23.6951 15.1438 24.9777 14.5812 25.1428 13.5521C25.4941 11.3556 25.7822 9.09195 25.6996 6.86283C25.6324 5.03883 25.2273 2.99595 23.8007 1.72107C22.3262 0.405872 20.0625 0.330993 18.1962 0.156272C16.1226 -0.0395679 14.0356 -0.0395679 11.9582 0.090992C9.84423 0.223472 7.73223 0.480753 5.64135 0.824432C3.87687 1.11435 2.16999 1.69227 1.08903 3.20523C0.0925522 4.59915 -0.0437698 6.35787 0.00999069 8.01867C0.0810318 10.2036 0.209671 12.3886 0.309509 14.5716C0.422798 17.0312 4.2628 17.0446 4.14952 14.5716C4.14952 14.5716 4.14952 14.5716 4.14952 14.5716C4.14952 14.5716 4.14952 14.5716 4.14952 14.5716Z" fill="#429AD4" transform="matrix(1 0 0 1 36.303 9.079)" />
      <path d="M67.473 4.4832C66.7242 2.6112 65.4243 1.35552 63.5216 0.798721C62.1123 0.384001 43.0371 0 43.0371 0C43.0371 0 14.4522 0.81024 9.32575 1.20192C6.54559 1.52448 4.69471 1.7184 2.87455 3.06048C0.324794 4.94208 -0.840647 8.20608 0.676154 11.2051C1.71295 13.2557 3.47168 14.3942 5.44928 15.0298C6.38815 23.7869 7.91071 32.4653 8.96671 41.2109C9.57727 46.2797 9.71359 51.4138 10.4662 56.4614C11.0749 60.5376 12.4054 66.4627 16.9059 67.5821C19.2157 68.1562 21.7866 67.8086 24.1366 67.7587C26.7075 67.703 29.2765 67.6474 31.8474 67.5917C36.9757 67.4803 42.1059 67.3882 47.2342 67.2576C49.4653 67.2019 51.7981 67.0272 53.7565 65.8003C55.4653 64.729 56.7286 63.024 57.5427 61.1558C59.4128 56.8589 59.841 51.8477 60.1789 47.2013C60.6032 41.3683 60.5744 35.4989 60.6666 29.6525C60.751 24.359 60.8336 19.0656 60.9181 13.7702C64.0592 13.9296 67.617 13.8778 68.4195 10.1107C68.8265 8.19264 68.1757 6.23808 67.473 4.4832C67.473 4.4832 67.473 4.4832 67.473 4.4832Z" fill="#429AD4" transform="translate(14.832 19.242)" />
      <path d="M0.925922 3.25824C18.901 2.46912 36.8837 1.95072 54.876 1.92C56.1105 1.91808 56.1144 -0.00191879 54.876 0C36.8837 0.0287971 18.899 0.549118 0.925919 1.33824C-0.304798 1.392 -0.312479 3.312 0.925922 3.25824C0.925922 3.25824 0.925922 3.25824 0.925922 3.25824C0.925922 3.25824 0.925922 3.25824 0.925922 3.25824Z" fill="#231F20" transform="matrix(1 0 0 1 20.167 32.619)" />
      <path d="M2.88 6.72067C12.9466 6.01795 23.0458 6.27715 33.12 5.76451C36.8083 5.57635 36.8314 -0.183647 33.12 0.00451088C23.0458 0.517153 12.9466 0.257952 2.88 0.960672C1.32864 1.06819 0 2.20675 0 3.84067C1.90735e-06 5.31715 1.31904 6.83011 2.88 6.72067C2.88 6.72067 2.88 6.72067 2.88 6.72067C2.88 6.72067 2.88 6.72067 2.88 6.72067Z" fill="#FFFFFF" transform="matrix(1 0 0 1 18.136 23.83)" />
      <path d="M0.000411987 0.927361C0.284573 11.5123 0.63401 22.0954 1.04873 32.6765C1.09673 33.9072 3.01673 33.9149 2.96873 32.6765C2.55401 22.0954 2.20265 11.5123 1.92041 0.927361C1.88777 -0.307201 -0.0322304 -0.311043 0.000411987 0.927361C0.000411987 0.927361 0.000411987 0.927361 0.000411987 0.927361C0.000411987 0.927361 0.000411987 0.927361 0.000411987 0.927361Z" fill="#231F20" transform="translate(34.101 45.032)" />
      <path d="M0.528172 0.927361C0.351532 11.0189 0.176811 21.1085 0.000171661 31.2C-0.0209465 32.4365 1.89906 32.4365 1.92017 31.2C2.09681 21.1085 2.27153 11.0189 2.44817 0.927361C2.46929 -0.30912 0.54929 -0.30912 0.528172 0.927361C0.528172 0.927361 0.528172 0.927361 0.528172 0.927361C0.528172 0.927361 0.528172 0.927361 0.528172 0.927361Z" fill="#231F20" transform="translate(48.745 45.642)" />
      <path d="M5.16203 0.686451C3.0289 9.90437 1.3105 19.2106 0.0106621 28.5821C-0.15638 29.7898 1.69258 30.314 1.86154 29.0928C3.16138 19.7213 4.87979 10.4151 7.01291 1.19717C7.29131 -0.00474548 5.44043 -0.517387 5.16203 0.686451C5.16203 0.686451 5.16203 0.686451 5.16203 0.686451C5.16203 0.686451 5.16203 0.686451 5.16203 0.686451Z" fill="#231F20" transform="matrix(1 0 0 1 59.162 46.517)" />
      <path d="M0.550817 3.26372C1.68938 4.31588 2.76266 5.43716 3.75722 6.62564C4.00298 6.9194 4.24298 7.21508 4.47914 7.51652C4.5137 7.56068 4.69802 7.79493 4.52522 7.57412C4.33898 7.33412 4.56938 7.63172 4.60778 7.68356C4.72298 7.83523 4.83626 7.98884 4.94954 8.14436C5.41226 8.77797 5.85386 9.42884 6.27626 10.0912C6.81578 10.938 8.0081 11.3565 8.90282 10.7805C9.74954 10.2352 10.1681 9.0602 9.5921 8.15396C7.81802 5.36805 5.69258 2.79332 3.2657 0.550766C2.52842 -0.130833 1.27082 -0.234512 0.550818 0.550766C-0.128863 1.28996 -0.236383 2.53605 0.550817 3.26372C0.550817 3.26372 0.550817 3.26372 0.550817 3.26372C0.550817 3.26372 0.550817 3.26372 0.550817 3.26372Z" fill="#99C93C" transform="matrix(1 0 0 1 7.279 59.179)" />
      <path d="M1.39753 3.78694C2.05033 4.02119 2.69545 4.27463 3.34057 4.53574C3.53641 4.6183 3.51145 4.60678 3.26569 4.50311C3.35017 4.53959 3.43657 4.57607 3.52105 4.61254C3.64777 4.66822 3.77641 4.7239 3.90313 4.77959C4.21993 4.91975 4.53481 5.06567 4.84969 5.21351C6.08425 5.7972 7.28809 6.44231 8.46121 7.13927C9.32521 7.65191 10.6059 7.36199 11.0878 6.44999C11.5774 5.52455 11.322 4.37063 10.3985 3.82343C7.86793 2.32198 5.18761 1.07974 2.41897 0.0851898C1.47241 -0.254646 0.276249 0.469193 0.0573697 1.42535C-0.190309 2.50439 0.383771 3.42215 1.39753 3.78694C1.39753 3.78694 1.39753 3.78694 1.39753 3.78694C1.39753 3.78694 1.39753 3.78694 1.39753 3.78694Z" fill="#99C93C" transform="matrix(1 0 0 1 3.915 71.842)" />
      <path d="M3.27292 9.25417C5.52316 7.27466 7.75804 5.27785 9.97564 3.25993C10.7206 2.58217 10.7148 1.22281 9.97564 0.545044C9.17884 -0.186478 8.05564 -0.176872 7.26076 0.545044C5.04316 2.56104 2.80828 4.55977 0.55804 6.53929C-0.198441 7.20553 -0.173481 8.58409 0.55804 9.25417C1.36444 9.99338 2.4646 9.96265 3.27292 9.25417C3.27292 9.25417 3.27292 9.25417 3.27292 9.25417C3.27292 9.25417 3.27292 9.25417 3.27292 9.25417Z" fill="#99C93C" transform="matrix(1 0 0 1 10.578 83.123)" />
      <path d="M0.0936508 2.44309C0.89621 4.63957 2.38229 6.62101 4.49237 7.71348C5.55989 8.26645 6.67541 8.58708 7.87349 8.67541C9.05814 8.76373 10.1929 8.47573 11.2642 7.9938C12.1839 7.57909 12.4738 6.17557 11.9535 5.36725C11.341 4.41685 10.31 4.23637 9.32693 4.67797C9.50165 4.59925 9.64373 4.557 9.37877 4.64917C9.30005 4.67605 9.22133 4.70293 9.14261 4.72597C8.97173 4.77589 8.76437 4.78549 8.59925 4.85077C8.96981 4.70677 8.87765 4.81813 8.67989 4.83349C8.5762 4.84117 8.47445 4.84693 8.37077 4.84885C8.18453 4.85269 7.99829 4.84501 7.81205 4.82965C7.62581 4.81429 7.49909 4.70293 7.88885 4.84501C7.81396 4.81813 7.71989 4.81621 7.64117 4.79893C7.45493 4.76052 7.27252 4.71252 7.09013 4.65877C6.91349 4.60501 6.73109 4.50709 6.55061 4.46869C6.95573 4.55509 6.74837 4.55317 6.60246 4.48213C6.50645 4.43604 6.41238 4.38805 6.3183 4.33813C6.14933 4.24789 5.98614 4.14805 5.82677 4.04437C5.75574 3.99829 5.68661 3.95029 5.61557 3.90037C5.36405 3.72181 5.56757 3.79477 5.65014 3.93109C5.56181 3.78517 5.33525 3.66037 5.21046 3.53941C5.05877 3.39541 4.91477 3.24373 4.77654 3.08629C4.76118 3.06901 4.49429 2.72149 4.66133 2.95765C4.83029 3.19765 4.57109 2.83093 4.56149 2.81749C4.44054 2.64661 4.32918 2.46997 4.22166 2.28949C4.11606 2.10901 4.01622 1.92469 3.92598 1.73653C3.90485 1.69237 3.84917 1.50421 3.80886 1.48309C3.90102 1.70581 3.92213 1.75189 3.8703 1.61941C3.84534 1.55413 3.82038 1.48885 3.79734 1.42357C3.45366 0.482766 2.4783 -0.254514 1.43575 0.0834064C0.510292 0.381007 -0.276909 1.43317 0.0936508 2.44309C0.0936508 2.44309 0.0936508 2.44309 0.0936508 2.44309C0.0936508 2.44309 0.0936508 2.44309 0.0936508 2.44309Z" fill="#FF9600" transform="matrix(1 0 0 1 71.885 6.821)" />
      <path d="M1.85472 3.84C4.32575 3.84 4.3296 0 1.85472 0C-0.616318 -4.76837e-07 -0.620163 3.84 1.85472 3.84C1.85472 3.84 1.85472 3.84 1.85472 3.84C1.85472 3.84 1.85472 3.84 1.85472 3.84Z" fill="#FF9600" transform="translate(86.945 6.474)" />
    </g>
  </g>
</svg>