<?xml version="1.0" encoding="utf-8"?>
<svg width="88.438" height="100" viewBox="0 0 88.438 100" fill="none" xmlns="http://www.w3.org/2000/svg">
  <defs>
    <linearGradient id="gradient_1" gradientUnits="userSpaceOnUse" x1="-31.44" y1="116.633" x2="55.578" y2="51.927">
      <stop offset="0.07" stop-color="#FFFFFF" />
      <stop offset="1" stop-color="#F98E36" />
    </linearGradient>
  </defs>
  <path d="M62.9692 22.9395L87.4314 66.2075Q87.6704 66.6302 87.8814 67.0676Q88.0923 67.5051 88.2744 67.9553Q88.4564 68.4055 88.6087 68.8666Q88.761 69.3277 88.883 69.7977Q89.005 70.2678 89.0961 70.7448Q89.1872 71.2218 89.2471 71.7037Q89.3069 72.1856 89.3353 72.6704Q89.3636 73.1552 89.3603 73.6408Q89.357 74.1264 89.3221 74.6108Q89.2872 75.0951 89.2208 75.5762Q89.1544 76.0572 89.0569 76.533Q88.9593 77.0087 88.831 77.477Q88.7027 77.9454 88.5441 78.4044Q88.3855 78.8634 88.1974 79.3111Q88.0093 79.7588 87.7924 80.1933Q87.5756 80.6278 87.3308 81.0472Q87.0861 81.4667 86.8146 81.8693Q86.5431 82.272 86.246 82.6561Q85.9488 83.0401 85.6273 83.4041Q85.3058 83.768 84.9612 84.1102Q84.6167 84.4524 84.2506 84.7715Q83.8845 85.0906 83.4984 85.3851Q83.1123 85.6796 82.7078 85.9484Q82.3033 86.2172 81.8822 86.459Q81.4611 86.7009 81.0252 86.9148Q80.5892 87.1287 80.1402 87.3138Q79.6913 87.4989 79.2312 87.6543Q78.7711 87.8098 78.3019 87.9349Q77.8327 88.0601 77.3563 88.1544Q76.88 88.2488 76.3985 88.3119Q75.917 88.375 75.4324 88.4066Q74.9478 88.4382 74.4622 88.4382L25.5378 88.4382Q25.0522 88.4382 24.5676 88.4066Q24.083 88.375 23.6015 88.3119Q23.12 88.2487 22.6437 88.1544Q22.1673 88.0601 21.6981 87.9349Q21.2289 87.8098 20.7688 87.6543Q20.3087 87.4989 19.8598 87.3138Q19.4108 87.1287 18.9748 86.9148Q18.5389 86.7009 18.1178 86.459Q17.6966 86.2171 17.2922 85.9484Q16.8877 85.6796 16.5016 85.3851Q16.1155 85.0905 15.7494 84.7715Q15.3833 84.4524 15.0388 84.1102Q14.6942 83.768 14.3727 83.404Q14.0512 83.0401 13.754 82.656Q13.4569 82.2719 13.1854 81.8693Q12.9139 81.4666 12.6692 81.0472Q12.4244 80.6277 12.2076 80.1932Q11.9907 79.7587 11.8026 79.311Q11.6145 78.8633 11.4559 78.4043Q11.2973 77.9453 11.169 77.4769Q11.0407 77.0085 10.9431 76.5328Q10.8456 76.0571 10.7792 75.576Q10.7128 75.095 10.6779 74.6106Q10.643 74.1262 10.6397 73.6406Q10.6364 73.155 10.6647 72.6702Q10.6931 72.1854 10.7529 71.7035Q10.8128 71.2216 10.9039 70.7446Q10.995 70.2676 11.117 69.7975Q11.239 69.3275 11.3913 68.8664Q11.5436 68.4053 11.7256 67.955Q11.9077 67.5048 12.1186 67.0674Q12.3296 66.63 12.5686 66.2073L37.0308 22.9395Q37.2729 22.5112 37.5427 22.0999Q37.8125 21.6886 38.1089 21.2959Q38.4053 20.9033 38.7269 20.5311Q39.0486 20.1588 39.394 19.8086Q39.7395 19.4584 40.1074 19.1318Q40.4752 18.8051 40.8638 18.5035Q41.2524 18.2018 41.66 17.9264Q42.0676 17.651 42.4925 17.4032Q42.9175 17.1553 43.3578 16.9359Q43.7981 16.7166 44.252 16.5268Q44.7058 16.337 45.1712 16.1776Q45.6366 16.0182 46.1115 15.8898Q46.5864 15.7614 47.0687 15.6646Q47.551 15.5678 48.0387 15.503Q48.5263 15.4383 49.0172 15.4058Q49.5081 15.3734 50 15.3734Q50.4919 15.3734 50.9828 15.4058Q51.4737 15.4383 51.9613 15.503Q52.449 15.5678 52.9313 15.6646Q53.4136 15.7614 53.8885 15.8898Q54.3634 16.0182 54.8288 16.1776Q55.2942 16.337 55.748 16.5268Q56.2019 16.7166 56.6422 16.9359Q57.0825 17.1553 57.5074 17.4032Q57.9324 17.651 58.34 17.9264Q58.7476 18.2018 59.1362 18.5035Q59.5248 18.8051 59.8926 19.1318Q60.2605 19.4584 60.606 19.8086Q60.9514 20.1588 61.2731 20.5311Q61.5947 20.9033 61.8911 21.2959Q62.1875 21.6886 62.4573 22.0999Q62.7271 22.5112 62.9692 22.9395Z" fill="url(#gradient_1)" fill-rule="evenodd" transform="matrix(-0 1 -1 -0 88.438 0)" />
</svg>